<?xml version="1.0" encoding="UTF-8"?>
<svg xmlns="http://www.w3.org/2000/svg" viewBox="0 0 791.3 411.4">
<style type="text/css">
	.st0{fill:#264DE4;}
	.st1{fill:#2965F1;}
	.st2{fill:#EBEBEB;}
	.st3{fill:#FFFFFF;}
	.st4{fill:#E44D26;}
	.st5{fill:#F16529;}
</style>
<g id="layer1" transform="translate(-170.06157,-270.18109)">
	<g id="g3013" transform="translate(95.428571,270.18109)">
		<polygon id="polygon2989" class="st0" points="255.8,411.4 107.6,370.3 74.6,0 437.4,0 404.3,370.2" />
		<polygon id="polygon2991" class="st1" points="376,346.6 404.3,30.3 256,30.3 256,379.9" />
		<polygon id="polygon2993" class="st2" points="150.3,167.6 154.4,213 256,213 256,167.6" />
		<polygon id="polygon2995" class="st2" points="142.1,75.7 146.3,121.1 256,121.1 256,75.7 255.8,75.7" />
		<polygon id="polygon2997" class="st2" points="256,285.5 255.8,285.6 205.2,271.9 202,235.7 177.4,235.7 156.4,235.7 162.8,307 
			255.8,332.8 256,332.8" />
		<polygon id="polygon3005" class="st3" points="361.4,167.6 369.6,75.7 255.8,75.7 255.8,121.1 319.8,121.1 315.7,167.6 
			255.8,167.6 255.8,213 311.8,213 306.5,271.9 255.8,285.6 255.8,332.8 348.9,307 349.6,299.3 360.3,179.8" />
	</g>
	<g id="g3054" transform="translate(524,270.18109)">
		<polygon id="polygon3028" class="st4" points="437.4,0 404.3,370.2 255.8,411.4 107.6,370.3 74.6,0" />
		<polygon id="polygon3030" class="st5" points="256,379.9 376,346.6 404.3,30.3 256,30.3" />
		<polygon id="polygon3032" class="st2" points="191.8,121.1 256,121.1 256,75.7 255.8,75.7 142.1,75.7 143.2,87.9 154.4,213 
			256,213 256,167.6 195.9,167.6" />
		<polygon id="polygon3034" class="st2" points="202,235.7 177.4,235.7 156.4,235.7 162.8,307 255.8,332.8 256,332.8 256,285.5 
			255.8,285.6 205.2,271.9" />
		<polygon id="polygon3044" class="st3" points="255.8,213 311.8,213 306.5,271.9 255.8,285.6 255.8,332.8 348.9,307 349.6,299.3 
			360.3,179.8 361.4,167.6 349.2,167.6 255.8,167.6" />
		<polygon id="polygon3046" class="st3" points="255.8,121 255.8,121.1 365.4,121.1 365.4,121.1 365.5,121.1 366.4,110.9 
			368.5,87.9 369.6,75.7 255.8,75.7 255.8,103.9" />
	</g>
</g>
</svg>
