<?xml version="1.0" encoding="utf-8"?>
<svg xmlns="http://www.w3.org/2000/svg" viewBox="0 0 100 100">
<path fill="#0a202b" class="st0" d="M98.8,54L95,46.8c-0.7-1.4-1-3-0.6-4.6l1.6-7.8c0.6-2.9-0.7-5.9-3.3-7.3l-7-4c-1.4-0.8-2.4-2-3-3.5l-2.9-7.4 c-1.1-2.7-3.8-4.5-6.7-4.4l-8.1,0.4c-1.6,0.1-3.1-0.4-4.4-1.3L54,2.3c-2.4-1.7-5.6-1.7-8,0L39.5,7c-1.3,0.9-2.8,1.4-4.4,1.3L27,7.9 c-2.9-0.1-5.7,1.6-6.7,4.4l-2.9,7.4c-0.6,1.5-1.6,2.7-3,3.5l-7,4c-2.6,1.5-3.9,4.4-3.3,7.3l1.6,7.8c0.3,1.5,0.1,3.2-0.6,4.6L1.2,54 c-1.4,2.6-0.9,5.9,1.2,8l5.5,5.6c1.1,1.1,1.8,2.6,1.9,4.2l0.7,8c0.3,3,2.4,5.5,5.3,6.1l7.7,1.7c1.6,0.4,3,1.2,4,2.5l4.8,6.3 c1.8,2.4,5,3.3,7.8,2.3l7.4-2.7c1.5-0.6,3.2-0.6,4.7,0l7.4,2.7c2.8,1,6,0.1,7.8-2.3l4.8-6.3c1-1.3,2.4-2.2,4-2.5l7.7-1.7 c2.9-0.7,5.1-3.1,5.3-6.1l0.7-8c0.1-1.6,0.8-3.1,1.9-4.2l5.5-5.6C99.7,59.8,100.2,56.6,98.8,54z M47.3,67.5c-1,1-2.3,1.5-3.6,1.5 c-1.4,0-2.7-0.5-3.6-1.5L23.4,50.9l7.3-7.3l13,13l25.7-25.7l7.3,7.3L47.3,67.5z"/>
</svg>
