<svg xmlns="http://www.w3.org/2000/svg" viewBox="0 0 100 100">
	<style type="text/css">
		.st0{fill:#0678BE;}
	</style>
	<path class="st0" d="M54.8,33.3c-1.7-1.7-3.4-3.5-5-5.2c-1.5,1.7-3,3.2-4.6,4.7c-0.4,0.4-0.7,0.8-0.9,1.3
		c-0.3,0.8-0.5,1.6-0.3,2.4c0,0.1,0,0.2,0,0.3c0.1,0.4,0.4,0.9,0.6,1.3c0,0.1,0.1,0.1,0.1,0.2c1,1.3,3.4,3.6,4.8,4.9l8,8.4L60,54
		c2,2.1,3.8,4.3,5.3,6.7l0,0c0.2,0.3,0.5,0.6,0.9,0.7h0.2c0.4-0.1,0.7-0.3,0.8-0.7l0,0c0.5-1.7,0.8-3.4,0.8-5.2
		c0-4.1-1.3-8-3.7-11.3c-2.8-3.9-5.9-7.5-9.4-10.7L54.8,33.3z"/>
	<path class="st0" d="M57.1,60.2c-2-2.4-3.9-4.6-6.9-7.9c-2.6,2.9-4.9,5.2-6.8,7.5c-3.4,3.7-3.2,9.5,0.5,12.9
		c3.7,3.4,9.5,3.2,12.9-0.5c2.9-3.1,3.2-7.9,0.8-11.4C57.3,60.6,57.2,60.4,57.1,60.2z"/>
	<path class="st0" d="M45.3,48.3c0.2-0.3,0.2-0.6,0-0.9l-5.9-6l-1.3-1.2c-1,1.2-2,2.4-2.9,3.7c-1.4,2.1-2.5,4.4-3.1,6.8l0,0
		c-0.7,2.8-0.6,5.7,0.2,8.5l0.1,0.3c0.1,0.3,0.3,0.6,0.5,0.9l0,0c0,0,0.7,1.1,1.3,1.2h0.2c0.2,0,0.4-0.2,0.4-0.4
		c0.6-1.2,1.3-2.3,2.1-3.3l2.2-2.6l0,0L45.3,48.3z"/>
	<path class="st0" d="M50,0C22.4,0,0,22.4,0,50s22.4,50,50,50c27.6,0,50-22.4,50-50c0,0,0,0,0,0C100,22.4,77.6,0,50,0z M49.7,81.7
		c-14.5,0-26.3-11.8-26.3-26.3c0-12.4,8.2-20.6,15.5-27.8c4.8-4.8,9.5-9.5,10.9-14.7c1.4,5.2,6,9.8,10.9,14.7
		c7.3,7.3,15.5,15.5,15.5,27.8C76.1,69.9,64.3,81.7,49.7,81.7z"/>
</svg>
