<svg xmlns="http://www.w3.org/2000/svg" viewBox="0 0 210 100">
<style type="text/css">
	.st0{fill:#005AF0;}
	.st1{fill:#FFCC00;}
</style>
<path class="st0" d="M46.2,80.3h-3.8l3.8-22.7l-11.6,0h-0.2c-1,0-1.9-0.9-1.9-1.9c0-0.5,0.4-1.2,0.4-1.2l20.9-34.9l3.9,0l-3.9,22.8
	l11.7,0h0.2c1,0,1.9,0.8,1.9,1.9c0,0.4-0.2,0.8-0.4,1.1L46.2,80.3z M50,0C22.4,0,0,22.4,0,50s22.4,50,50,50c27.6,0,50-22.4,50-50
	S77.6,0,50,0z"/>
<path class="st1" d="M143.1,50c2.6-3.4,5.9-6.9,9.5-10.6c14.3-14.4,30.3-15.3,31.8-13.8c1.5,1.5,0.6,17.3-13.8,31.8
	c-3.7,3.7-7.3,7-10.6,9.6v10.1c0,4.2,0.1,4.3-2.5,6.3c-1.4,1-7.5,6-14,10c-1.6,1-2.9,0.2-1.9-1.3c2.8-3.9,4.7-7.3,5.9-10.4
	c1.1-2.8,1.1-5.3,0-7.4c-4.1,1.3-7.6,0.9-10.2-1.6c-2.6-2.5-2.9-6-1.6-10.2c-2.2-1.1-4.7-1.2-7.5,0c-3.1,1.2-6.5,3.2-10.4,5.9
	c-1.4,1-2.2-0.3-1.3-1.9c4-6.5,9-12.6,10-14c1.9-2.6,2.1-2.5,6.3-2.5H143.1z M130.3,72.5c0.9,0.9-10.7,6-10.7,17.9
	c11.9,0,17-11.6,17.9-10.8c0.9,0.9-1.9,7.6-6.7,12.4c-4.8,4.8-11.2,7.9-20.8,7.9c0-9.6,3.1-16,7.9-20.8
	C122.7,74.5,129.5,71.7,130.3,72.5L130.3,72.5z M114.4,50c0,2-2.5,2.2-2.5,0c0.3-27.6,18.7-50,48.1-50s50,20.6,50,50
	s-22.4,47.9-50,48.1c-0.9,0-1.4-0.6-1.4-1.2c0-0.6,0.4-1.3,1.3-1.3c23.1,0.1,42.5-20.6,42.5-45.6S185,7.5,160,7.5
	C135,7.5,114.7,24.4,114.4,50z"/>
</svg>
