<?xml version="1.0" encoding="UTF-8"?>
<svg xmlns="http://www.w3.org/2000/svg" viewBox="0 0 100 100">
<style type="text/css">
	.st0{fill-rule:evenodd;clip-rule:evenodd;fill:#FF2D20;}
</style>
<path class="st0" d="M98.2,22.7c0,0.1,0.1,0.3,0.1,0.4v21.4c0,0.6-0.3,1.1-0.8,1.4l-18,10.3v20.5c0,0.6-0.3,1.1-0.8,1.4L41.2,99.6
	c-0.1,0-0.2,0.1-0.3,0.1c0,0-0.1,0-0.1,0c-0.3,0.1-0.5,0.1-0.8,0c0,0-0.1,0-0.1-0.1c-0.1,0-0.2-0.1-0.3-0.1L2.2,78.1
	c-0.5-0.3-0.8-0.8-0.8-1.4V12.5c0-0.1,0-0.3,0.1-0.4c0,0,0-0.1,0.1-0.1c0-0.1,0.1-0.2,0.1-0.2c0-0.1,0.1-0.1,0.1-0.1
	c0-0.1,0.1-0.1,0.1-0.2c0,0,0.1-0.1,0.2-0.1c0.1,0,0.1-0.1,0.2-0.1h0L20.9,0.4c0.5-0.3,1.1-0.3,1.6,0l18.7,10.8h0
	c0.1,0,0.1,0.1,0.2,0.1c0.1,0,0.1,0.1,0.2,0.1c0.1,0.1,0.1,0.1,0.1,0.2c0,0,0.1,0.1,0.1,0.1c0,0.1,0.1,0.2,0.1,0.2
	c0,0,0,0.1,0.1,0.1c0,0.1,0.1,0.3,0.1,0.4v40.1l15.6-9V23.1c0-0.1,0-0.3,0.1-0.4c0,0,0-0.1,0.1-0.1c0-0.1,0.1-0.2,0.1-0.2
	c0-0.1,0.1-0.1,0.1-0.1c0-0.1,0.1-0.1,0.1-0.2c0,0,0.1-0.1,0.2-0.1c0.1,0,0.1-0.1,0.2-0.1h0L77.2,11c0.5-0.3,1.1-0.3,1.6,0
	l18.7,10.8c0.1,0,0.1,0.1,0.2,0.1c0,0,0.1,0.1,0.2,0.1c0.1,0.1,0.1,0.1,0.1,0.2c0,0,0.1,0.1,0.1,0.1c0,0.1,0.1,0.2,0.1,0.2
	C98.2,22.6,98.2,22.7,98.2,22.7z M95.1,43.6V25.8l-6.6,3.8l-9.1,5.2v17.8L95.1,43.6L95.1,43.6z M76.4,75.8V58l-8.9,5.1L42,77.6v18
	C42,95.6,76.4,75.8,76.4,75.8z M4.5,15.2v60.6l34.4,19.8v-18l-18-10.2l0,0l0,0c-0.1,0-0.1-0.1-0.2-0.1c0,0-0.1-0.1-0.1-0.1l0,0
	c-0.1,0-0.1-0.1-0.1-0.2c0-0.1-0.1-0.1-0.1-0.2l0,0c0-0.1-0.1-0.1-0.1-0.2c0-0.1-0.1-0.1-0.1-0.2v0c0-0.1,0-0.2,0-0.2
	c0-0.1,0-0.1,0-0.2v0V24.2L11.1,19L4.5,15.2L4.5,15.2z M21.7,3.5l-15.6,9l15.6,9l15.6-9L21.7,3.5L21.7,3.5z M29.8,59.6l9.1-5.2V15.2
	L32.3,19l-9.1,5.2v39.2C23.3,63.4,29.8,59.6,29.8,59.6z M77.9,14.1l-15.6,9l15.6,9l15.6-9C93.6,23.1,77.9,14.1,77.9,14.1z
	M76.4,34.8l-9.1-5.2l-6.6-3.8v17.8l9.1,5.2l6.6,3.8C76.4,52.6,76.4,34.8,76.4,34.8z M40.5,74.9l22.9-13.1l11.4-6.5l-15.6-9
	l-18,10.3l-16.4,9.4C24.9,66.1,40.5,74.9,40.5,74.9z"/>
</svg>
