<?xml version="1.0" encoding="utf-8"?>
<svg xmlns="http://www.w3.org/2000/svg" viewBox="0 0 200 200">
<style type="text/css">
	.st1{fill:#232323;}
	.st2{fill:#E8AB0B;}
</style>
<path class="st1" d="M123.7,49.7h-15.5c-0.9,0-1.8,0.5-2.2,1.3l-27,49L52,51c-0.4-0.8-1.3-1.3-2.2-1.3H35.7c-1.3,0-2.4,1.1-2.5,2.4
	l-0.9,21.2h1v76.4h18V81.1l20.9,37c0.4,0.8,1.3,1.3,2.2,1.3h9.2c0.9,0,1.8-0.5,2.2-1.3l20.9-38v7.3h17V49.7z"/>
<path class="st1" d="M65,182h108c5,0,9-4,9-9V27c0-5-4-9-9-9H27c-5,0-9,4-9,9v108L0,117l0-90C0,12.1,12.1,0,27,0l146,0
	c14.9,0,27,12.1,27,27v146c0,14.9-12.1,27-27,27H83L65,182z"/>
<polygon class="st2" points="18,160.4 18,182 39.6,182 57.6,200 0,200 0,142.4 "/>
<path class="st2" d="M168.3,126.1h-1V49.7h-17v69.7h0c0,7.4-6,13.3-13.3,13.3s-13.3-6-13.3-13.3h0v-18.6h-17l0,17.9
	c0,16.1,12.3,29.9,28.4,30.9c5.5,0.3,10.7-0.8,15.2-3v3.1h14.6c1.3,0,2.4-1.1,2.5-2.4L168.3,126.1z"/>
</svg>
