<svg xmlns="http://www.w3.org/2000/svg" viewBox="0 0 100 100">
<style type="text/css">
	.st0{fill:#110F16;}
	.st1{fill:#E1B100;}
</style>
<path class="st0" d="M65.9,77.8c-10,0-18.1-8.1-18.1-18.1v-5l9.5-14.2v19.2c0,4.8,3.9,8.6,8.6,8.6c4.8,0,8.6-3.9,8.6-8.6V22.2H84 v37.7C84,69.7,75.9,77.8,65.9,77.8z"/>
<polygon class="st1" points="16,77.8 16,20 36.7,50.8 57.3,20 57.3,37 36.7,67.8 25.5,51.1 25.5,77.8"/>
<path class="st0" d="M70.3,92H15c-3.9,0-7-3.1-7-7V15c0-3.9,3.1-7,7-7h70c3.9,0,7,3.1,7,7v55.3l8-8V15c0-8.3-6.7-15-15-15H15 C6.7,0,0,6.7,0,15v70c0,8.3,6.7,15,15,15h47.3L70.3,92z"/>
<polygon class="st1" points="92,87.3 92,92 87.3,92 79.3,100 100,100 100,79.3 "/>
</svg>
