<?xml version="1.0" encoding="utf-8"?>
<svg xmlns="http://www.w3.org/2000/svg" viewBox="0 0 210 210">
<style type="text/css">
	.st0{fill:#EABF0A;}
	.st1{fill:#232323;}
	.st2{fill:none;stroke:#EABF0A;stroke-width:4;stroke-miterlimit:10;}
</style>
<path class="st0" d="M198.5,92.5v-80h-20v49.1c0,16.5-12.9,30.4-29.4,30.9C132,93,118,79.2,118,62.3H98c0,27.8,22.5,50.3,50.3,50.3
	c11.4,0,21.8-3.8,30.3-10.1v10.1h16.2c2.1,0,3.9-1.7,4-3.8l0.8-16.2H198.5z"/>
<path class="st1" d="M96.5,14.7L65,62.5L33,14.7c-0.9-1.4-2.5-2.2-4.2-2.2H15.3c-2.1,0-3.9,1.7-4,3.8l-0.8,16.2h1v80h20V44.8
	L55.1,80h19.7L98,44.8v7.4h20V16.5c0-2.2-1.8-4-4-4h-13.3C99,12.5,97.4,13.3,96.5,14.7z"/>
<line class="st2" x1="15" y1="137.5" x2="195" y2="137.5"/>
<g>
	<path class="st1" d="M48.5,187.4c0,6.7-5.8,10-17.3,10H12.6v-35.6h17.8c5.4,0,9.7,0.9,12.8,2.7c3,1.8,4.5,4.2,4.5,7.2
		c0,3-1.9,5.5-5.6,7.6C46.4,180.9,48.5,183.6,48.5,187.4z M41.2,171.7c0-1.7-1-3.1-2.9-4c-1.9-0.9-4.5-1.4-7.8-1.4H19.2V177h12.1
		C37.9,177,41.2,175.3,41.2,171.7z M41.9,187.4c0-3.9-3.7-5.8-11.1-5.8H19.2V193h12C38.3,193,41.9,191.1,41.9,187.4z"/>
	<path class="st1" d="M93.8,197.5H60.6v-33.4c0-1.5,1.1-2.3,3.3-2.3c2.2,0,3.2,0.8,3.2,2.3v29h26.6c2.2,0,3.3,0.7,3.3,2.2
		C97.1,196.8,96,197.5,93.8,197.5z"/>
	<path class="st1" d="M148.3,180c0,4.9-1.8,9-5.4,12.5c-3.9,3.8-9,5.6-15.3,5.6s-11.3-1.9-15.3-5.6c-3.8-3.5-5.7-7.7-5.7-12.5
		c0-4.9,1.8-9.1,5.4-12.7c3.8-3.9,8.8-5.8,14.8-5.8c6.4,0,11.7,1.9,15.9,5.8C146.4,170.9,148.3,175.2,148.3,180z M141.6,180
		c0-3.7-1.2-6.9-3.7-9.6c-2.8-3-6.6-4.5-11.3-4.5c-4.4,0-7.8,1.5-10.2,4.5c-2.2,2.6-3.2,5.8-3.2,9.6c0,3.7,1.2,6.8,3.6,9.4
		c2.7,2.9,6.2,4.3,10.8,4.3s8.1-1.4,10.7-4.3C140.5,186.9,141.6,183.8,141.6,180z"/>
	<path class="st1" d="M196.9,184.9c0,4.9-2,8.5-6.1,10.8c-2.9,1.7-6.2,2.5-10,2.5c-6.5,0-11.9-1.9-16.1-5.8
		c-3.9-3.5-5.9-7.6-5.9-12.2c0-5.6,2.1-10.2,6.2-13.6c3.9-3.3,8.9-5,15-5c4.3,0,7.7,0.6,10.3,1.7c1.5,0.7,3.2,1.9,4.9,3.6
		c0.5,0.5,0.7,0.9,0.7,1.4c0,0.6-0.3,1-1,1.4c-0.7,0.4-1.4,0.6-2.3,0.6c-1.1,0-2.1-0.3-2.8-1c-1.4-1.2-2.5-2-3.4-2.4
		c-1.5-0.7-3.7-1-6.4-1c-4.4,0-7.9,1.3-10.5,3.9c-2.7,2.6-4,6-4,10.2c0,3.4,1.3,6.5,4,9.1c3,3,6.8,4.5,11.4,4.5
		c4.1,0,6.8-1.3,8.1-3.9c0.7-1.3,1.1-3.4,1.1-6.2h-7.4c-2.3,0-3.4-0.7-3.4-2.2c0-1.5,1.1-2.2,3.4-2.2h14.3V184.9z"/>
</g>
</svg>
