<?xml version="1.0" encoding="utf-8"?>
<svg xmlns="http://www.w3.org/2000/svg" viewBox="0 0 480 160">
<style type="text/css">
	.st0{fill:#E8AB0B;stroke:#E8AB0B;stroke-width:3;stroke-miterlimit:10;}
	.st1{fill:#232323;}
	.st2{fill:#E8AB0B;}
</style>
<line class="st0" x1="180" y1="97.4" x2="455" y2="97.4"/>
<g>
	<path class="st1" d="M238.6,63.2c0,8.4-8,12.5-23.9,12.5H189V29.8h23.6c7.5,0,13.3,1.1,17.5,3.4c4.2,2.3,6.3,5.3,6.3,9
		c0,5.1-3.2,8.5-9.5,10.2C234.7,54,238.6,57.6,238.6,63.2z M229.7,42.2c0-2.6-1.5-4.6-4.5-6c-3-1.4-7.2-2.1-12.5-2.1h-16.8v16.5
		h16.8c6,0,10.3-0.6,13-1.9C228.4,47.4,229.7,45.2,229.7,42.2z M231.7,63.1c0-5.5-5.9-8.2-17.6-8.2h-18.3v16.7h18.8
		C226,71.5,231.7,68.7,231.7,63.1z"/>
	<path class="st1" d="M302.3,75.8h-46.9V32.1c0-1.4,1.2-2.2,3.5-2.2c2.2,0,3.4,0.7,3.4,2.2v39.5h40.1c2.3,0,3.5,0.7,3.5,2.1
		S304.6,75.8,302.3,75.8z"/>
	<path class="st1" d="M376.7,53.3c0,6.3-2.5,11.7-7.4,16.1c-5.4,4.8-12.4,7.2-21.2,7.2c-8.7,0-15.8-2.4-21.3-7.2
		c-5.2-4.5-7.7-9.9-7.7-16.1c0-6.3,2.4-11.7,7.3-16.3c5.3-5,12.1-7.5,20.5-7.5c9,0,16.3,2.5,22,7.5C374.1,41.6,376.7,47,376.7,53.3z
		 M369.8,53.3c0-5.2-1.9-9.7-5.7-13.3c-4.3-4.1-10-6.2-17.3-6.2c-6.7,0-12,2.1-15.8,6.2c-3.4,3.6-5,8-5,13.3c0,5.2,1.8,9.6,5.5,13.2
		c4.1,4,9.6,5.9,16.6,5.9c7,0,12.5-2,16.5-5.9C368.1,62.9,369.8,58.5,369.8,53.3z"/>
	<path class="st1" d="M443.3,59.3c0,11.5-7.3,17.3-21.8,17.3c-9,0-16.4-2.5-22.4-7.5c-5.5-4.6-8.2-9.8-8.2-15.7
		c0-7.2,2.8-13.1,8.5-17.5c5.5-4.3,12.4-6.4,20.8-6.4c5.9,0,10.6,0.7,14.1,2.2c2,0.9,4.3,2.4,6.8,4.6c0.5,0.5,0.8,0.9,0.8,1.4
		c0,1.3-1.2,2-3.5,2c-1.2,0-2.2-0.3-2.9-1c-2-1.7-3.8-2.9-5.3-3.5c-2.4-0.9-5.8-1.4-10.1-1.4c-6.7,0-12.2,1.8-16.3,5.4
		c-4.1,3.6-6.2,8.3-6.2,14.2c0,4.8,2.1,9,6.2,12.8c4.6,4.1,10.5,6.2,17.6,6.2c6.7,0,11.1-1.9,13.2-5.6c1-1.8,1.5-5,1.5-9.4h-12.2
		c-2.3,0-3.5-0.7-3.5-2.2c0-1.4,1.2-2.1,3.5-2.1h19.4V59.3z"/>
</g>
<g>
	<path class="st1" d="M200.5,126.6c0,2.1-1.6,3.2-4.7,3.2h-5.2v-11.4h4.7c1.5,0,2.6,0.3,3.5,0.9s1.3,1.3,1.3,2.3
		c0,1.3-0.6,2.1-1.7,2.5C199.8,124.5,200.5,125.4,200.5,126.6z M198.5,121.6c0-1.2-1-1.9-3.1-1.9h-3.1v3.7h2.8
		c1.2,0,2.1-0.1,2.6-0.4C198.2,122.8,198.5,122.3,198.5,121.6z M198.9,126.6c0-1.2-1.1-1.9-3.2-1.9h-3.4v3.8h3.5
		C197.8,128.5,198.9,127.9,198.9,126.6z"/>
	<path class="st1" d="M215.4,119.4l-4.6,5.2v4.8c0,0.4-0.3,0.7-0.8,0.7c-0.6,0-0.8-0.2-0.8-0.7v-4.8l-4.7-5.2
		c-0.1-0.1-0.2-0.2-0.2-0.4c0-0.2,0.1-0.3,0.2-0.4c0.2-0.1,0.4-0.2,0.6-0.2c0.3,0,0.5,0.1,0.7,0.3l4.2,4.6l4.1-4.6
		c0.2-0.2,0.4-0.3,0.7-0.3c0.2,0,0.4,0.1,0.6,0.2c0.2,0.1,0.3,0.3,0.3,0.5C215.6,119.2,215.5,119.3,215.4,119.4z"/>
	<path class="st1" d="M244.4,129.3c0,0.4-0.3,0.7-0.8,0.7c-0.6,0-0.8-0.2-0.8-0.7v-11.2l-4.9,5.3c-0.3,0.3-0.6,0.5-1,0.5
		c-0.4,0-0.7-0.1-0.9-0.4l-4.9-5.5v11.3c0,0.4-0.3,0.7-0.8,0.7c-0.6,0-0.8-0.2-0.8-0.7v-12.7c0-0.5,0.3-0.7,0.9-0.7
		c0.5,0,1,0.2,1.3,0.6l5.3,5.8l5.3-5.8c0.4-0.4,0.8-0.7,1.3-0.7c0.6,0,0.9,0.3,0.9,0.8V129.3z"/>
	<path class="st1" d="M251.4,129.3c0,0.4-0.3,0.7-0.8,0.7c-0.6,0-0.8-0.2-0.8-0.7v-10.3c0-0.4,0.3-0.7,0.8-0.7
		c0.6,0,0.8,0.2,0.8,0.7V129.3z"/>
	<path class="st1" d="M266.1,128.2c-0.8,0.7-1.5,1.2-2.2,1.4c-0.7,0.3-1.5,0.4-2.5,0.4c-1.6,0-2.9-0.5-3.9-1.6s-1.5-2.5-1.5-4.3
		c0-2,0.6-3.5,1.9-4.5c1-0.8,2.2-1.2,3.6-1.2c1.1,0,1.9,0.1,2.6,0.4c0.7,0.3,1.3,0.8,1.8,1.5c0.1,0.1,0.1,0.2,0.1,0.3
		c0,0.2-0.1,0.3-0.3,0.4c-0.2,0.1-0.4,0.2-0.6,0.2c-0.3,0-0.5-0.1-0.7-0.3c-0.6-0.8-1.6-1.2-2.9-1.2c-1,0-1.9,0.3-2.6,1
		c-0.8,0.8-1.3,1.9-1.3,3.4c0,1.4,0.4,2.5,1.1,3.4c0.7,0.9,1.6,1.3,2.7,1.3c1.3,0,2.4-0.5,3.4-1.4c0.2-0.2,0.4-0.3,0.7-0.3
		c0.2,0,0.4,0.1,0.6,0.2c0.2,0.1,0.3,0.3,0.3,0.5C266.4,128,266.3,128.1,266.1,128.2z"/>
	<path class="st1" d="M279.9,129.3c0,0.4-0.3,0.7-0.8,0.7c-0.6,0-0.8-0.2-0.8-0.7v-4.8h-7.1v4.8c0,0.4-0.3,0.7-0.8,0.7
		s-0.8-0.2-0.8-0.7v-10.3c0-0.4,0.3-0.7,0.8-0.7s0.8,0.2,0.8,0.7v4.1h7.1v-4.1c0-0.4,0.3-0.7,0.8-0.7c0.5,0,0.8,0.2,0.8,0.7V129.3z"
		/>
	<path class="st1" d="M295.7,129.1c0,0.1,0.1,0.2,0.1,0.2c0,0.2-0.1,0.3-0.3,0.4c-0.2,0.1-0.4,0.2-0.6,0.2c-0.4,0-0.6-0.1-0.7-0.4
		l-1-1.8h-7.5l-0.9,1.8c-0.1,0.3-0.4,0.4-0.8,0.4c-0.6,0-0.8-0.2-0.8-0.6c0-0.1,0-0.2,0.1-0.2l5.2-10.4c0.2-0.3,0.5-0.4,0.9-0.4
		c0.3,0,0.6,0.1,0.9,0.4L295.7,129.1z M292.6,126.6l-3.2-6.1l-3.1,6.1H292.6z"/>
	<path class="st1" d="M308.3,129.8h-9.2v-11.4h9.2c0.6,0,0.8,0.2,0.8,0.6c0,0.4-0.3,0.6-0.8,0.6h-7.6v3.2h7.1c0.5,0,0.8,0.2,0.8,0.6
		c0,0.4-0.3,0.6-0.8,0.6h-7.1v4.4h7.6c0.6,0,0.8,0.2,0.8,0.6C309.1,129.6,308.9,129.8,308.3,129.8z"/>
	<path class="st1" d="M321.7,129.8h-9.2v-10.8c0-0.4,0.3-0.7,0.8-0.7c0.5,0,0.8,0.2,0.8,0.7v9.5h7.6c0.6,0,0.8,0.2,0.8,0.6
		C322.5,129.6,322.3,129.8,321.7,129.8z"/>
	<path class="st1" d="M348.5,125.3c0,2.9-2.1,4.5-6.2,4.7c-1.7,0.1-3.2-0.2-4.6-1c-1.5-0.9-2.2-2.1-2.2-3.6v-9
		c0-0.4,0.3-0.7,0.8-0.7c0.5,0,0.8,0.2,0.8,0.7v9c0,1.1,0.6,2,1.7,2.6c1,0.6,2.1,0.8,3.4,0.7c3.1-0.2,4.6-1.3,4.6-3.5v-8.8
		c0-0.4,0.3-0.7,0.8-0.7c0.5,0,0.8,0.2,0.8,0.7V125.3z"/>
	<path class="st1" d="M361.5,126.8c0,2.2-1.8,3.2-5.4,3.2c-2.1,0-3.8-0.8-5-2.5c-0.1-0.1-0.1-0.2-0.1-0.3c0-0.2,0.1-0.4,0.3-0.5
		c0.2-0.1,0.4-0.2,0.6-0.2c0.3,0,0.4,0.1,0.6,0.3c0.8,1.3,2,1.9,3.6,1.9c2.5,0,3.8-0.7,3.8-2c0-0.7-0.7-1.3-2.2-1.8
		c-1.4-0.4-2.8-0.9-4.2-1.3c-1.5-0.6-2.2-1.5-2.2-2.6c0-1.9,1.6-2.9,4.7-3c1.2,0,2.3,0.1,3.2,0.6c0.9,0.4,1.6,1,1.9,1.9
		c0,0.1,0.1,0.1,0.1,0.2c0,0.4-0.3,0.6-0.8,0.6c-0.4,0-0.7-0.1-0.8-0.4c-0.2-0.5-0.7-0.9-1.3-1.1c-0.6-0.3-1.4-0.4-2.1-0.4
		c-2,0.1-3.1,0.6-3.1,1.7c0,0.7,0.7,1.4,2.2,1.8c1.4,0.4,2.8,0.9,4.2,1.3C360.7,124.9,361.5,125.7,361.5,126.8z"/>
	<path class="st1" d="M374.4,121.5c0,0.9-0.3,1.6-0.9,2.1c-0.6,0.6-1.5,0.8-2.7,0.8h-4.5v4.9c0,0.4-0.3,0.7-0.8,0.7
		c-0.5,0-0.8-0.2-0.8-0.7v-10.9h5.8C373.1,118.4,374.4,119.4,374.4,121.5z M372.8,121.5c0-1.2-0.8-1.8-2.3-1.8h-4.2v3.4h4.6
		C372.1,123.1,372.8,122.6,372.8,121.5z"/>
	<path class="st1" d="M386.2,129.8h-9.2v-11.4h9.2c0.6,0,0.8,0.2,0.8,0.6c0,0.4-0.3,0.6-0.8,0.6h-7.6v3.2h7.1c0.5,0,0.8,0.2,0.8,0.6
		c0,0.4-0.3,0.6-0.8,0.6h-7.1v4.4h7.6c0.6,0,0.8,0.2,0.8,0.6C387.1,129.6,386.8,129.8,386.2,129.8z"/>
	<path class="st1" d="M401.2,129.3c0,0.4-0.2,0.6-0.7,0.6c-0.3,0-0.6-0.2-0.9-0.5l-7.9-8.6v8.5c0,0.4-0.3,0.7-0.8,0.7
		s-0.8-0.2-0.8-0.7V119c0-0.4,0.3-0.6,0.8-0.6c0.4,0,0.7,0.1,0.9,0.4l7.8,8.5V119c0-0.4,0.3-0.7,0.8-0.7c0.5,0,0.8,0.2,0.8,0.7
		V129.3z"/>
	<path class="st1" d="M414.5,126.8c0,2.2-1.8,3.2-5.4,3.2c-2.1,0-3.8-0.8-5-2.5c-0.1-0.1-0.1-0.2-0.1-0.3c0-0.2,0.1-0.4,0.3-0.5
		c0.2-0.1,0.4-0.2,0.6-0.2c0.3,0,0.4,0.1,0.6,0.3c0.8,1.3,2,1.9,3.6,1.9c2.5,0,3.8-0.7,3.8-2c0-0.7-0.7-1.3-2.2-1.8
		c-1.4-0.4-2.8-0.9-4.2-1.3c-1.5-0.6-2.2-1.5-2.2-2.6c0-1.9,1.6-2.9,4.7-3c1.2,0,2.3,0.1,3.2,0.6c0.9,0.4,1.6,1,1.9,1.9
		c0,0.1,0.1,0.1,0.1,0.2c0,0.4-0.3,0.6-0.8,0.6c-0.4,0-0.7-0.1-0.8-0.4c-0.2-0.5-0.7-0.9-1.3-1.1c-0.6-0.3-1.4-0.4-2.1-0.4
		c-2,0.1-3.1,0.6-3.1,1.7c0,0.7,0.7,1.4,2.2,1.8c1.4,0.4,2.8,0.9,4.2,1.3C413.8,124.9,414.5,125.7,414.5,126.8z"/>
	<path class="st1" d="M427.9,129c0.1,0.1,0.1,0.2,0.1,0.3c0,0.2-0.1,0.3-0.3,0.4c-0.2,0.1-0.4,0.2-0.6,0.2c-0.3,0-0.5-0.1-0.7-0.3
		l-5-6.6l-2.1,1.5v4.7c0,0.4-0.3,0.7-0.8,0.7c-0.6,0-0.8-0.2-0.8-0.7v-10.3c0-0.4,0.3-0.7,0.8-0.7c0.5,0,0.8,0.2,0.8,0.7v3.8
		l6.1-4.3c0.2-0.1,0.3-0.2,0.5-0.2c0.2,0,0.4,0.1,0.6,0.2c0.2,0.1,0.2,0.3,0.2,0.5c0,0.2-0.1,0.3-0.3,0.5l-3.8,2.7L427.9,129z"/>
	<path class="st1" d="M442.1,119.4l-4.6,5.2v4.8c0,0.4-0.3,0.7-0.8,0.7c-0.6,0-0.8-0.2-0.8-0.7v-4.8l-4.7-5.2
		c-0.1-0.1-0.2-0.2-0.2-0.4c0-0.2,0.1-0.3,0.2-0.4c0.2-0.1,0.4-0.2,0.6-0.2c0.3,0,0.5,0.1,0.7,0.3l4.2,4.6l4.1-4.6
		c0.2-0.2,0.4-0.3,0.7-0.3c0.2,0,0.4,0.1,0.6,0.2c0.2,0.1,0.3,0.3,0.3,0.5C442.2,119.2,442.2,119.3,442.1,119.4z"/>
</g>
<path class="st1" d="M111.3,30H95.8c-0.9,0-1.8,0.5-2.2,1.3l-27,49l-27-49c-0.4-0.8-1.3-1.3-2.2-1.3H23.4c-1.3,0-2.4,1.1-2.5,2.4
	L20,53.6h1V130h18V61.4l20.9,37c0.4,0.8,1.3,1.3,2.2,1.3h9.2c0.9,0,1.8-0.5,2.2-1.3l20.9-38v7.3h17V30z"/>
<path class="st2" d="M156,106.4h-1V30h-17v69.7h0c0,7.4-6,13.3-13.3,13.3s-13.3-6-13.3-13.3h0V81.1h-17l0,17.9
	c0,16.1,12.3,29.9,28.4,30.9c5.5,0.3,10.7-0.8,15.2-3v3.1h14.6c1.3,0,2.4-1.1,2.5-2.4L156,106.4z"/>
</svg>
