<?xml version="1.0" encoding="UTF-8"?>
<svg xmlns="http://www.w3.org/2000/svg" viewBox="0 0 300 100">
<style type="text/css">
	.st0{fill:#E1B100;}
	.st1{fill:#110F16;}
	.st2{fill:none;stroke:#E1B100;stroke-miterlimit:10;}
</style>
<path class="st0" d="M98,86.7h7v-7C103.1,82.4,100.7,84.8,98,86.7z"/>
<path class="st1" d="M94.6,13.3v50c0,7.2-5.8,13-13,13s-13-5.8-13-13v-22L58.3,56.9v6.4c0,12.9,10.5,23.4,23.4,23.4
	S105,76.2,105,63.3v-50H94.6z"/>
<polygon class="st0" points="41.8,72.2 68.7,32 68.7,13.3 41.8,53.5 15,13.3 15,86.7 25.4,86.7 25.4,47.5 "/>
<path class="st1" d="M147.5,27.3c0,3.8-1.9,6.5-5.8,8.1c2.8,0.5,5,1.7,6.7,3.5c1.6,1.8,2.5,3.9,2.5,6.3c0,2.4-0.7,4.4-2,5.9
	c-1.3,1.6-3,2.7-5.2,3.4c-2.1,0.7-4.4,1.1-6.8,1.1h-12.2V17.4h11c3.8,0,6.7,0.9,8.7,2.7S147.5,24.4,147.5,27.3z M141.9,27.8
	c0-1.9-0.5-3.3-1.6-4.2c-1.1-0.9-2.9-1.3-5.4-1.3h-4.7v11.6h3.9c2.7,0,4.7-0.6,5.9-1.7C141.2,31,141.9,29.5,141.9,27.8z
		M145.2,44.7c0-4.1-3.2-6.1-9.5-6.1h-5.6v12.2h5.8c3.2,0,5.5-0.5,7-1.5C144.4,48.3,145.2,46.8,145.2,44.7z"/>
<path class="st1" d="M186.4,50.6v5h-22.7V17.4h5.5v33.2H186.4z"/>
<path class="st1" d="M235,36.4c0,3.5-0.8,6.7-2.5,9.7c-1.7,3-4.1,5.4-7.2,7.2s-6.9,2.7-11.2,2.7c-3.9,0-7.4-0.9-10.5-2.7
	c-3.1-1.8-5.4-4.1-7.1-7.1c-1.7-3-2.6-6.2-2.6-9.7c0-3.4,0.8-6.6,2.4-9.6c1.6-3,3.9-5.5,7-7.3c3.1-1.9,6.8-2.8,11-2.8
	c4,0,7.5,0.9,10.6,2.6c3.1,1.7,5.6,4.1,7.3,7.1C234.1,29.6,235,32.9,235,36.4z M199.6,36.6c0,2.7,0.7,5.2,2,7.4
	c1.3,2.2,3.1,3.9,5.3,5.1s4.7,1.8,7.3,1.8c2.8,0,5.3-0.6,7.6-1.7c2.3-1.1,4.1-2.7,5.5-4.9c1.4-2.2,2-4.8,2-8c0-2.3-0.6-4.5-1.7-6.7
	c-1.1-2.2-2.8-4-5.1-5.5c-2.2-1.4-4.9-2.2-8-2.2c-3.1,0-5.7,0.6-8,1.9c-2.3,1.3-4,3-5.2,5.2C200.2,31.4,199.6,33.9,199.6,36.6z"/>
<path class="st1" d="M268.1,21.8c-2.7,0-5.2,0.6-7.5,1.9c-2.3,1.3-4.1,3-5.4,5.3c-1.3,2.2-2,4.7-2,7.5c0,2.8,0.6,5.3,1.9,7.5
	s3.1,4,5.4,5.3s4.9,1.9,7.8,1.9c1.4,0,2.7-0.1,3.8-0.3c1.1-0.2,2.7-0.7,4.9-1.3v-8h-7.3v-4.8h12.8V53c-4.6,2.1-9.2,3.1-14,3.1
	c-4.6,0-8.5-0.9-11.6-2.8c-3.1-1.9-5.5-4.3-7-7.2s-2.3-6-2.3-9.2c0-3.6,0.9-6.9,2.6-10c1.7-3,4.2-5.5,7.3-7.3
	c3.2-1.8,6.7-2.7,10.8-2.7c2.2,0,4.3,0.2,6.3,0.7c2,0.5,4.4,1.3,7.2,2.6v5.6c-2.2-1.3-4.4-2.2-6.8-2.9
	C272.5,22.1,270.2,21.8,268.1,21.8z"/>
<path class="st1" d="M124.7,83.7c-1,0-2-0.2-3-0.6V71.3h0.8v5.2c0.8-0.8,1.7-1.2,2.7-1.2c0.7,0,1.3,0.2,1.8,0.5s0.9,0.8,1.2,1.5
	s0.4,1.3,0.4,2c0,0.9-0.2,1.6-0.5,2.3s-0.8,1.2-1.4,1.5C126.1,83.6,125.4,83.7,124.7,83.7z M124.7,83c0.6,0,1.2-0.1,1.7-0.4
	s0.9-0.7,1.1-1.3s0.4-1.2,0.4-1.9c0-1-0.3-1.8-0.8-2.4s-1.2-0.9-2-0.9c-0.5,0-0.9,0.1-1.3,0.3c-0.4,0.2-0.8,0.5-1.2,1v5.2
	C123.3,82.9,124,83,124.7,83z"/>
<path class="st1" d="M137,75.5h0.9l-6,12.2H131l2.8-5.7l-3.3-6.5h1l2.8,5.6L137,75.5z"/>
<path class="st1" d="M147.4,71.3l4.6,5.7l4.6-5.7h0.9v12.3h-0.9V72.8h0l-4.4,5.6H152l-4.5-5.6h0v10.8h-0.9V71.3H147.4z"/>
<path class="st1" d="M161.2,73.9v-1.5h0.8v1.5H161.2z M162.1,75.5v8.1h-0.8v-8.1H162.1z"/>
<path class="st1" d="M171.2,75.8v0.9c-0.4-0.2-0.7-0.3-1.1-0.4c-0.3-0.1-0.7-0.1-1.1-0.1c-0.6,0-1.2,0.1-1.7,0.4s-0.8,0.7-1.1,1.2
	s-0.4,1.1-0.4,1.7c0,0.6,0.1,1.2,0.4,1.7s0.6,0.9,1.1,1.2s1.1,0.5,1.8,0.5c0.6,0,1.3-0.1,2-0.4v0.8c-0.7,0.3-1.4,0.4-2.1,0.4
	c-0.8,0-1.6-0.2-2.2-0.6c-0.6-0.4-1.1-0.9-1.4-1.5s-0.5-1.3-0.5-2.1c0-0.8,0.2-1.6,0.5-2.2c0.3-0.6,0.8-1.1,1.4-1.5
	s1.3-0.5,2.1-0.5C169.8,75.3,170.5,75.5,171.2,75.8z"/>
<path class="st1" d="M180.5,78.6v5h-0.8v-5c0-0.8-0.2-1.4-0.5-1.8c-0.4-0.4-0.9-0.7-1.6-0.7c-1,0-1.9,0.5-2.7,1.6v5.9h-0.8V71.3
	h0.8v5.6c0.3-0.5,0.8-0.9,1.3-1.1s1-0.4,1.6-0.4c0.9,0,1.6,0.3,2.1,0.9C180.3,76.8,180.5,77.6,180.5,78.6z"/>
<path class="st1" d="M188.8,77.8v4.9c0,0.2,0.1,0.3,0.2,0.3c0.2,0,0.5-0.2,1.1-0.6V83c-0.3,0.3-0.6,0.4-0.8,0.5s-0.4,0.2-0.6,0.2
	c-0.4,0-0.7-0.2-0.7-0.7v-0.4c-0.4,0.4-0.9,0.7-1.3,0.9c-0.4,0.2-0.8,0.3-1.3,0.3c-0.6,0-1.1-0.2-1.5-0.6s-0.6-0.9-0.6-1.4
	c0-0.8,0.4-1.4,1.1-1.9c0.8-0.5,1.9-0.8,3.5-1.1V78c0-0.6-0.1-1.1-0.4-1.4s-0.7-0.4-1.3-0.4c-0.9,0-1.7,0.4-2.6,1.1v-0.9
	c0.7-0.7,1.6-1,2.6-1c0.8,0,1.5,0.2,1.9,0.6S188.8,77,188.8,77.8z M185.7,83.1c0.4,0,0.7-0.1,1.1-0.3c0.3-0.2,0.7-0.5,1.1-0.8v-2.7
	c-1.2,0.1-2.1,0.4-2.8,0.8s-1,0.9-1,1.6c0,0.4,0.1,0.8,0.4,1.1S185.3,83.1,185.7,83.1z"/>
<path class="st1" d="M196,83.7c-0.7,0-1.4-0.2-2-0.5s-1.1-0.8-1.4-1.5c-0.3-0.6-0.5-1.4-0.5-2.2c0-0.8,0.1-1.5,0.4-2.2
	s0.7-1.1,1.3-1.5c0.5-0.4,1.2-0.5,1.9-0.5c1,0,1.8,0.3,2.4,1s0.9,1.7,1,2.9h-6.1c0,0,0,0,0,0.1s0,0.1,0,0.2c0,0.6,0.1,1.2,0.4,1.7
	s0.6,0.9,1.1,1.2s1,0.4,1.7,0.4c1,0,2-0.3,2.9-1v0.9c-0.5,0.3-1,0.6-1.5,0.7S196.5,83.7,196,83.7z M195.6,76.1
	c-0.7,0-1.3,0.2-1.8,0.7s-0.8,1.1-0.9,1.9h5.2c-0.1-0.8-0.4-1.5-0.8-2S196.4,76.1,195.6,76.1z"/>
<path class="st1" d="M201.9,83.6V71.3h0.8v12.3H201.9z"/>
<path class="st1" d="M217.5,82.9c1.3,0,2.3-0.4,3-1.2s1.1-1.9,1.1-3.3v-7.1h0.9v7.1c0,1-0.2,2-0.6,2.8c-0.4,0.8-0.9,1.4-1.7,1.9
	s-1.6,0.7-2.7,0.7c-1.7,0-2.9-0.5-3.8-1.4s-1.3-2.3-1.3-4v-7h0.9v7.1c0,1.4,0.3,2.5,1,3.3C215.1,82.5,216.1,82.9,217.5,82.9z"/>
<path class="st1" d="M228,75.3c0.7,0,1.4,0.2,2.1,0.6v0.9c-0.4-0.2-0.8-0.4-1.1-0.5c-0.3-0.1-0.7-0.2-1-0.2c-0.5,0-0.9,0.1-1.2,0.3
	c-0.3,0.2-0.4,0.5-0.4,0.9c0,0.4,0.1,0.7,0.4,0.9s0.8,0.5,1.5,0.9c0.7,0.3,1.3,0.6,1.6,1c0.3,0.4,0.5,0.8,0.5,1.4
	c0,0.6-0.2,1.1-0.7,1.5s-1.1,0.6-1.9,0.6c-0.4,0-0.8,0-1.2-0.1c-0.4-0.1-0.8-0.3-1.2-0.5v-0.9c0.4,0.3,0.8,0.5,1.2,0.6
	c0.4,0.1,0.8,0.2,1.1,0.2c0.5,0,0.9-0.1,1.3-0.4c0.3-0.3,0.5-0.6,0.5-1c0-0.3-0.1-0.5-0.2-0.7s-0.3-0.4-0.6-0.5s-0.7-0.4-1.3-0.7
	c-0.7-0.3-1.2-0.7-1.5-1c-0.3-0.4-0.5-0.8-0.5-1.3c0-0.6,0.2-1.1,0.7-1.5S227.3,75.3,228,75.3z"/>
<path class="st1" d="M240.7,79.5c0,0.8-0.2,1.5-0.5,2.2c-0.3,0.6-0.8,1.1-1.4,1.5s-1.3,0.5-2.1,0.5c-0.4,0-0.8,0-1.2-0.1
	c-0.4-0.1-0.8-0.3-1.2-0.5v4.6h-0.8V75.5h3.1c0.8,0,1.5,0.2,2.2,0.5s1.1,0.8,1.5,1.4C240.5,78,240.7,78.7,240.7,79.5z M236.6,83
	c1,0,1.7-0.3,2.3-1s0.9-1.5,0.9-2.5s-0.3-1.8-0.9-2.4s-1.4-0.9-2.4-0.9h-2.2v6.1C235,82.8,235.8,83,236.6,83z"/>
<path class="st1" d="M247.1,83.7c-0.7,0-1.4-0.2-2-0.5s-1.1-0.8-1.4-1.5c-0.3-0.6-0.5-1.4-0.5-2.2c0-0.8,0.1-1.5,0.4-2.2
	s0.7-1.1,1.3-1.5c0.5-0.4,1.2-0.5,1.9-0.5c1,0,1.8,0.3,2.4,1s0.9,1.7,1,2.9h-6.1c0,0,0,0,0,0.1s0,0.1,0,0.2c0,0.6,0.1,1.2,0.4,1.7
	s0.6,0.9,1.1,1.2s1,0.4,1.7,0.4c1,0,2-0.3,2.9-1v0.9c-0.5,0.3-1,0.6-1.5,0.7S247.6,83.7,247.1,83.7z M246.8,76.1
	c-0.7,0-1.3,0.2-1.8,0.7s-0.8,1.1-0.9,1.9h5.2c-0.1-0.8-0.4-1.5-0.8-2S247.5,76.1,246.8,76.1z"/>
<path class="st1" d="M259.5,78.6v4.9h-0.8v-4.9c0-0.8-0.2-1.5-0.6-2s-0.9-0.7-1.6-0.7c-0.5,0-1,0.1-1.5,0.4s-0.8,0.7-1.2,1.2v5.9
	h-0.8v-8.1h0.8v1.4c0.3-0.5,0.8-0.9,1.3-1.1s1-0.4,1.5-0.4c0.9,0,1.6,0.3,2.1,0.9C259.3,76.8,259.5,77.6,259.5,78.6z"/>
<path class="st1" d="M265,75.3c0.7,0,1.4,0.2,2.1,0.6v0.9c-0.4-0.2-0.8-0.4-1.1-0.5c-0.3-0.1-0.7-0.2-1-0.2c-0.5,0-0.9,0.1-1.2,0.3
	c-0.3,0.2-0.4,0.5-0.4,0.9c0,0.4,0.1,0.7,0.4,0.9s0.8,0.5,1.5,0.9c0.7,0.3,1.3,0.6,1.6,1c0.3,0.4,0.5,0.8,0.5,1.4
	c0,0.6-0.2,1.1-0.7,1.5s-1.1,0.6-1.9,0.6c-0.4,0-0.8,0-1.2-0.1c-0.4-0.1-0.8-0.3-1.2-0.5v-0.9c0.4,0.3,0.8,0.5,1.2,0.6
	c0.4,0.1,0.8,0.2,1.1,0.2c0.5,0,0.9-0.1,1.3-0.4c0.3-0.3,0.5-0.6,0.5-1c0-0.3-0.1-0.5-0.2-0.7s-0.3-0.4-0.6-0.5s-0.7-0.4-1.3-0.7
	c-0.7-0.3-1.2-0.7-1.5-1c-0.3-0.4-0.5-0.8-0.5-1.3c0-0.6,0.2-1.1,0.7-1.5S264.2,75.3,265,75.3z"/>
<path class="st1" d="M271.2,71.3v8l4.1-3.8h1l-4.1,3.9l4.8,4.2h-1.2l-4.6-4.1v4.1h-0.8V71.3H271.2z"/>
<path class="st1" d="M284.3,75.5h0.9l-6,12.2h-0.9l2.8-5.7l-3.3-6.5h1l2.8,5.6L284.3,75.5z"/>
<line class="st2" x1="120.5" y1="64" x2="286.1" y2="64"/>
</svg>
