<?xml version="1.0" encoding="utf-8"?>
<svg xmlns="http://www.w3.org/2000/svg" viewBox="0 0 400 120">
<style type="text/css">
	.st0{fill:#EABF0A;}
	.st1{fill:#232323;}
	.st2{fill:#232323;stroke:#EABF0A;stroke-width:4;stroke-miterlimit:10;}
</style>
<path class="st0" d="M198,90V10h-20v49.1c0,16.5-12.9,30.4-29.4,30.9c-17.1,0.5-31.1-13.2-31.1-30.2h-20c0,27.8,22.5,50.3,50.3,50.3
	c11.4,0,21.8-3.8,30.3-10.1V110h16.2c2.1,0,3.9-1.7,4-3.8L199,90H198z"/>
<path class="st1" d="M96,12.2L64.5,60l-32-47.8C31.6,10.8,30,10,28.3,10H14.8c-2.1,0-3.9,1.7-4,3.8L10,30h1v80h20V42.3l23.6,35.2
	h19.7l23.2-35.2v7.4h20V14c0-2.2-1.8-4-4-4h-13.3C98.5,10,96.9,10.8,96,12.2z"/>
<line class="st2" x1="210" y1="65" x2="390" y2="65"/>
<g>
	<path class="st1" d="M245.2,36.1c0,6.7-5.5,10-16.6,10h-17.8V10.5h17.1c5.2,0,9.3,0.9,12.3,2.7c2.9,1.8,4.3,4.2,4.3,7.2
		c0,3-1.8,5.5-5.4,7.6C243.2,29.6,245.2,32.3,245.2,36.1z M238.2,20.4c0-1.7-0.9-3.1-2.8-4c-1.8-0.9-4.3-1.4-7.5-1.4h-10.8v10.8
		h11.6C235,25.7,238.2,23.9,238.2,20.4z M238.9,36c0-3.9-3.6-5.8-10.7-5.8h-11.1v11.5h11.5C235.4,41.7,238.9,39.8,238.9,36z"/>
	<path class="st1" d="M288.7,46.2h-31.8V12.8c0-1.5,1.1-2.3,3.2-2.3c2.1,0,3.1,0.8,3.1,2.3v29h25.5c2.1,0,3.2,0.7,3.2,2.2
		C291.9,45.4,290.8,46.2,288.7,46.2z"/>
	<path class="st1" d="M340.9,28.7c0,4.9-1.7,9-5.2,12.5c-3.8,3.8-8.7,5.6-14.6,5.6c-6,0-10.9-1.9-14.7-5.6
		c-3.6-3.5-5.5-7.7-5.5-12.5c0-4.9,1.7-9.1,5.1-12.7c3.7-3.9,8.4-5.8,14.2-5.8c6.2,0,11.3,1.9,15.3,5.8
		C339.1,19.6,340.9,23.8,340.9,28.7z M334.6,28.7c0-3.7-1.2-6.9-3.5-9.6c-2.7-3-6.3-4.5-10.8-4.5c-4.2,0-7.5,1.5-9.8,4.5
		c-2.1,2.6-3.1,5.8-3.1,9.6c0,3.7,1.1,6.8,3.4,9.4c2.5,2.9,6,4.3,10.4,4.3s7.8-1.4,10.3-4.3C333.5,35.6,334.6,32.5,334.6,28.7z"/>
	<path class="st1" d="M387.7,33.6c0,4.9-1.9,8.5-5.8,10.8c-2.8,1.7-5.9,2.5-9.6,2.5c-6.2,0-11.4-1.9-15.5-5.8
		c-3.8-3.5-5.7-7.6-5.7-12.2c0-5.6,2-10.2,5.9-13.6c3.7-3.3,8.5-5,14.4-5c4.1,0,7.4,0.6,9.9,1.7c1.5,0.7,3,1.9,4.7,3.6
		c0.5,0.5,0.7,0.9,0.7,1.4c0,0.6-0.3,1-1,1.4c-0.6,0.4-1.4,0.6-2.2,0.6c-1.1,0-2-0.3-2.7-1c-1.3-1.2-2.4-2-3.3-2.4
		c-1.5-0.7-3.5-1-6.2-1c-4.2,0-7.6,1.3-10.1,3.9c-2.5,2.6-3.8,6-3.8,10.2c0,3.4,1.3,6.5,3.8,9.1c2.9,3,6.5,4.5,11,4.5
		c3.9,0,6.5-1.3,7.8-3.9c0.7-1.3,1-3.4,1-6.2H374c-2.2,0-3.3-0.7-3.3-2.2c0-1.5,1.1-2.2,3.3-2.2h13.7V33.6z"/>
</g>
<g>
	<path class="st1" d="M217.8,90.8c0,1.6-1.1,2.4-3.3,2.4h-3.6v-9h3.2c1,0,1.9,0.2,2.5,0.6c0.6,0.4,0.9,1,0.9,1.7
		c0,1.1-0.5,1.8-1.4,2.1C217.2,88.9,217.8,89.6,217.8,90.8z M216.6,86.5c0-0.6-0.2-1-0.7-1.3c-0.5-0.3-1.1-0.4-1.9-0.4h-2.4v3.6h2.2
		c1,0,1.7-0.1,2.1-0.4C216.4,87.7,216.6,87.2,216.6,86.5z M217.1,90.7c0-0.7-0.3-1.1-0.8-1.4c-0.4-0.2-1-0.3-1.8-0.3h-2.8v3.5h2.9
		C216.2,92.5,217.1,91.9,217.1,90.7z"/>
	<path class="st1" d="M228.4,84.7l-3.5,4.4v4c0,0.2-0.1,0.3-0.4,0.3s-0.4-0.1-0.4-0.3v-4l-3.6-4.3c-0.1-0.1-0.1-0.1-0.1-0.2
		c0-0.2,0.1-0.3,0.4-0.3c0.1,0,0.2,0,0.3,0.1l3.4,4.1l3.3-4c0.1-0.1,0.2-0.2,0.3-0.2c0.3,0,0.4,0.1,0.4,0.3
		C228.5,84.6,228.5,84.6,228.4,84.7z"/>
	<path class="st1" d="M248.9,93c0,0.2-0.1,0.3-0.4,0.3s-0.4-0.1-0.4-0.3v-9.9l-4.1,4.9c-0.2,0.2-0.3,0.3-0.5,0.3
		c-0.2,0-0.3-0.1-0.5-0.3l-4.1-5V93c0,0.2-0.1,0.3-0.4,0.3c-0.3,0-0.4-0.1-0.4-0.3V82.5c0-0.3,0.1-0.4,0.4-0.4
		c0.3,0,0.6,0.1,0.8,0.4l4.1,5l4.1-5c0.2-0.3,0.5-0.4,0.8-0.4c0.3,0,0.4,0.1,0.4,0.4V93z"/>
	<path class="st1" d="M253.8,93c0,0.2-0.1,0.3-0.4,0.3S253,93.2,253,93v-8.5c0-0.2,0.1-0.3,0.4-0.3s0.4,0.1,0.4,0.3V93z"/>
	<path class="st1" d="M264.3,91.9c-0.5,0.5-1.1,0.9-1.6,1.1c-0.5,0.2-1.1,0.3-1.8,0.3c-1.1,0-2.1-0.4-2.8-1.3s-1.1-2-1.1-3.4
		c0-1.6,0.4-2.7,1.3-3.5c0.7-0.7,1.6-1,2.6-1c0.8,0,1.4,0.1,1.9,0.3c0.5,0.2,0.9,0.6,1.2,1.1c0,0.1,0.1,0.1,0.1,0.2
		c0,0.2-0.1,0.3-0.4,0.3c-0.1,0-0.2-0.1-0.3-0.2c-0.5-0.8-1.3-1.1-2.4-1.1c-0.8,0-1.5,0.3-2.1,0.8c-0.7,0.7-1,1.7-1,3
		c0,1.2,0.3,2.2,0.9,2.9c0.6,0.8,1.3,1.1,2.2,1.1c1.1,0,2-0.4,2.7-1.2c0.1-0.1,0.2-0.1,0.3-0.1c0.3,0,0.4,0.1,0.4,0.3
		C264.4,91.8,264.4,91.9,264.3,91.9z"/>
	<path class="st1" d="M274,93c0,0.2-0.1,0.3-0.4,0.3s-0.4-0.1-0.4-0.3v-4.2h-5.8V93c0,0.2-0.1,0.3-0.4,0.3s-0.4-0.1-0.4-0.3v-8.5
		c0-0.2,0.1-0.3,0.4-0.3s0.4,0.1,0.4,0.3v3.6h5.8v-3.6c0-0.2,0.1-0.3,0.4-0.3s0.4,0.1,0.4,0.3V93z"/>
	<path class="st1" d="M285.2,92.9c0,0,0,0.1,0,0.1c0,0.2-0.1,0.3-0.4,0.3c-0.2,0-0.3-0.1-0.3-0.2l-0.7-1.6h-5.9l-0.7,1.6
		c-0.1,0.1-0.2,0.2-0.3,0.2c-0.3,0-0.4-0.1-0.4-0.3c0,0,0-0.1,0-0.1l3.9-8.6c0.1-0.2,0.3-0.2,0.4-0.2c0.2,0,0.3,0.1,0.5,0.2
		L285.2,92.9z M283.4,90.9l-2.7-5.8l-2.6,5.8H283.4z"/>
	<path class="st1" d="M294.3,93.2h-6.7v-9h6.7c0.3,0,0.4,0.1,0.4,0.3c0,0.2-0.1,0.3-0.4,0.3h-5.9v3h5.6c0.3,0,0.4,0.1,0.4,0.3
		c0,0.2-0.1,0.3-0.4,0.3h-5.6v4h5.9c0.3,0,0.4,0.1,0.4,0.3C294.7,93.1,294.5,93.2,294.3,93.2z"/>
	<path class="st1" d="M303.8,93.2h-6.7v-8.7c0-0.2,0.1-0.3,0.4-0.3s0.4,0.1,0.4,0.3v8.1h5.9c0.3,0,0.4,0.1,0.4,0.3
		C304.2,93.1,304,93.2,303.8,93.2z"/>
	<path class="st1" d="M322.5,89.7c0,2.3-1.5,3.5-4.4,3.7c-1.2,0.1-2.3-0.2-3.2-0.8c-1.1-0.7-1.6-1.6-1.6-2.8v-7.4
		c0-0.2,0.1-0.3,0.4-0.3s0.4,0.1,0.4,0.3v7.4c0,1,0.4,1.7,1.3,2.3c0.8,0.5,1.7,0.7,2.7,0.7c2.4-0.1,3.6-1.1,3.6-3v-7.3
		c0-0.2,0.1-0.3,0.4-0.3s0.4,0.1,0.4,0.3V89.7z"/>
	<path class="st1" d="M331.8,90.9c0,1.7-1.3,2.5-3.8,2.5c-1.5,0-2.7-0.6-3.5-1.9c0-0.1-0.1-0.1-0.1-0.2c0-0.3,0.1-0.4,0.4-0.4
		c0.1,0,0.2,0.1,0.3,0.2c0.3,0.5,0.7,0.9,1.3,1.2c0.5,0.3,1.1,0.4,1.7,0.4c2,0,3-0.6,3-1.8c0-0.8-0.6-1.3-1.7-1.8
		c-1-0.3-2.1-0.7-3.1-1c-1.1-0.5-1.7-1.1-1.7-1.9c0-1.4,1.1-2.2,3.3-2.2c0.7,0,1.5,0.1,2.3,0.5c0.9,0.4,1.3,0.9,1.3,1.5
		c0,0.2-0.1,0.3-0.4,0.3c-0.2,0-0.3-0.1-0.4-0.2c-0.2-0.4-0.5-0.8-1.1-1c-0.5-0.2-1.1-0.4-1.8-0.3c-1.7,0.1-2.5,0.6-2.5,1.6
		c0,0.6,0.6,1.1,1.7,1.6c1,0.3,2.1,0.7,3.1,1C331.2,89.3,331.8,90,331.8,90.9z"/>
	<path class="st1" d="M340.9,86.5c0,0.7-0.2,1.2-0.6,1.6s-1,0.6-1.8,0.6h-3.7V93c0,0.2-0.1,0.3-0.4,0.3S334,93.2,334,93v-8.8h4.2
		C340,84.2,340.9,84.9,340.9,86.5z M340.1,86.5c0-1.1-0.6-1.7-1.9-1.7h-3.4v3.2h3.7c0.5,0,1-0.1,1.2-0.4
		C340,87.3,340.1,86.9,340.1,86.5z"/>
	<path class="st1" d="M349.5,93.2h-6.7v-9h6.7c0.3,0,0.4,0.1,0.4,0.3c0,0.2-0.1,0.3-0.4,0.3h-5.9v3h5.6c0.3,0,0.4,0.1,0.4,0.3
		c0,0.2-0.1,0.3-0.4,0.3h-5.6v4h5.9c0.3,0,0.4,0.1,0.4,0.3C349.9,93.1,349.8,93.2,349.5,93.2z"/>
	<path class="st1" d="M359.9,93c0,0.2-0.1,0.3-0.3,0.3c-0.2,0-0.3-0.1-0.5-0.3l-6.3-7.6V93c0,0.2-0.1,0.3-0.4,0.3S352,93.2,352,93
		v-8.6c0-0.2,0.1-0.3,0.3-0.3c0.2,0,0.4,0.1,0.5,0.3l6.2,7.6v-7.5c0-0.2,0.1-0.3,0.4-0.3s0.4,0.1,0.4,0.3V93z"/>
	<path class="st1" d="M369.3,90.9c0,1.7-1.3,2.5-3.8,2.5c-1.5,0-2.7-0.6-3.5-1.9c0-0.1-0.1-0.1-0.1-0.2c0-0.3,0.1-0.4,0.4-0.4
		c0.1,0,0.2,0.1,0.3,0.2c0.3,0.5,0.7,0.9,1.3,1.2c0.5,0.3,1.1,0.4,1.7,0.4c2,0,3-0.6,3-1.8c0-0.8-0.6-1.3-1.7-1.8
		c-1-0.3-2.1-0.7-3.1-1c-1.1-0.5-1.7-1.1-1.7-1.9c0-1.4,1.1-2.2,3.3-2.2c0.7,0,1.5,0.1,2.3,0.5c0.9,0.4,1.3,0.9,1.3,1.5
		c0,0.2-0.1,0.3-0.4,0.3c-0.2,0-0.3-0.1-0.4-0.2c-0.2-0.4-0.5-0.8-1.1-1c-0.5-0.2-1.1-0.4-1.8-0.3c-1.7,0.1-2.5,0.6-2.5,1.6
		c0,0.6,0.6,1.1,1.7,1.6c1,0.3,2.1,0.7,3.1,1C368.7,89.3,369.3,90,369.3,90.9z"/>
	<path class="st1" d="M378.8,92.8c0,0.1,0.1,0.1,0.1,0.2c0,0.2-0.1,0.3-0.4,0.3c-0.1,0-0.2,0-0.3-0.1l-3.9-5.7l-1.9,1.4v4
		c0,0.2-0.1,0.3-0.4,0.3s-0.4-0.1-0.4-0.3v-8.5c0-0.2,0.1-0.3,0.4-0.3s0.4,0.1,0.4,0.3v3.6l5-3.8c0.1-0.1,0.2-0.1,0.3-0.1
		c0.3,0,0.4,0.1,0.4,0.3c0,0.1,0,0.2-0.1,0.2l-3,2.4L378.8,92.8z"/>
	<path class="st1" d="M388.8,84.7l-3.5,4.4v4c0,0.2-0.1,0.3-0.4,0.3s-0.4-0.1-0.4-0.3v-4l-3.6-4.3c-0.1-0.1-0.1-0.1-0.1-0.2
		c0-0.2,0.1-0.3,0.4-0.3c0.1,0,0.2,0,0.3,0.1l3.4,4.1l3.3-4c0.1-0.1,0.2-0.2,0.3-0.2c0.3,0,0.4,0.1,0.4,0.3
		C388.9,84.6,388.9,84.6,388.8,84.7z"/>
</g>
</svg>
