<?xml version="1.0" encoding="utf-8"?>
<svg xmlns="http://www.w3.org/2000/svg" viewBox="0 0 100 100">
<style type="text/css">
	.st0{fill:#F1C40F;stroke:#232323;stroke-width:5;stroke-miterlimit:10;}
	.st1{fill:#232323;}
</style>
<path class="st0" d="M54.9,11.3L96.3,83c2.2,3.8-0.5,8.5-4.9,8.5H8.6c-4.4,0-7.1-4.7-4.9-8.5l41.4-71.6C47.3,7.5,52.7,7.5,54.9,11.3
	z"/>
<path class="st1" d="M20.8,82c-0.9,0.6-2.3,0.4-3.1-0.6c-0.6-0.9-0.4-2.3,0.6-3.1s2.3-0.4,3.1,0.6C22.1,79.9,21.8,81.3,20.8,82z
	 M16.9,76L16.9,76c-2.2,1.6-2.7,4.6-1.2,6.8c1.6,2.2,4.5,2.8,6.8,1.3l0,0l28.7-19.4l13.3,2.4l6.2-12.8l-1.2-1.7L61,58.6l-5.7-8.4
	l8.5-5.9l-1.2-1.7l-14.3,1.1l-2.5,13l-0.1-0.1L16.9,76z"/>
</svg>
