<?xml version="1.0" encoding="utf-8"?>
<svg xmlns="http://www.w3.org/2000/svg" viewBox="0 0 100 100">
<style type="text/css">
	.st0{fill:#E10006;}
</style>
<circle class="st0" cx="50" cy="50" r="8.1"/>
<path class="st0" d="M50,0C22.4,0,0,22.4,0,50s22.4,50,50,50s50-22.4,50-50S77.6,0,50,0z M72,65.9c-4.5,0-9-2.3-11.6-6.7
	c-2.6,2.9-6.3,4.7-10.4,4.7c-7.7,0-13.9-6.2-13.9-13.9S42.3,36.1,50,36.1S63.9,42.3,63.9,50c0,7,4.1,10.1,8.1,10.1
	c4,0,8.1-3.1,8.1-10.1c0-16.6-13.5-30.1-30.1-30.1S19.9,33.4,19.9,50S33.4,80.1,50,80.1c4.1,0,8-0.8,11.7-2.4l2.3,5.3
	c-4.4,1.9-9.1,2.8-14,2.8c-9.6,0-18.6-3.7-25.4-10.5C17.8,68.6,14.1,59.6,14.1,50s3.7-18.6,10.5-25.4c6.8-6.8,15.8-10.5,25.4-10.5
	s18.6,3.7,25.4,10.5c6.8,6.8,10.5,15.8,10.5,25.4C85.9,60.5,78.9,65.9,72,65.9z"/>
</svg>
