<?xml version="1.0" encoding="utf-8"?>
<svg xmlns="http://www.w3.org/2000/svg" viewBox="0 0 256 256">
<style>
	.st0{fill:#55A03A;}
	.st1{fill:#345B24;}
</style>
<path class="st0" d="M251.6,122.4c-0.5-0.7-12.9-16.2-34.2-31.8C189,69.7,158.1,58.7,128,58.7c-30.1,0-61,11-89.4,31.9
	c-21.3,15.6-33.7,31.2-34.2,31.8L0,128l4.4,5.6c0.5,0.7,12.9,16.2,34.2,31.8c28.4,20.9,59.3,31.9,89.4,31.9c30.1,0,61-11,89.4-31.9
	c21.3-15.6,33.7-31.2,34.2-31.8l4.4-5.6L251.6,122.4z M128,176.6c-26.8,0-48.6-21.8-48.6-48.6c0-4.2,0.5-8.3,1.5-12.2L69.9,114
	c-1.1,4.5-1.7,9.2-1.7,14c0,17.3,7.4,32.9,19.2,43.8c-15.2-5.6-28.1-13.5-37.8-20.6c-12.1-8.8-21.1-17.7-26.2-23.2
	c5.2-5.5,14.2-14.4,26.2-23.2c9.7-7.1,22.6-15,37.8-20.6l7.4,8.4c8.7-8.1,20.4-13.1,33.2-13.1c26.8,0,48.6,21.8,48.6,48.6
	S154.8,176.6,128,176.6z M206.4,151.2c-9.7,7.1-22.6,15-37.8,20.6c11.8-10.9,19.2-26.5,19.2-43.8s-7.4-32.9-19.2-43.8
	c15.2,5.6,28.1,13.5,37.8,20.6c12.1,8.8,21.1,17.7,26.2,23.2C227.5,133.5,218.4,142.4,206.4,151.2z"/>
<path class="st1" d="M97.1,118.6c-0.9,3-1.4,6.2-1.4,9.4c0,17.8,14.5,32.3,32.3,32.3c17.8,0,32.3-14.5,32.3-32.3
	S145.8,95.7,128,95.7c-8.7,0-16.6,3.4-22.4,9l15.9,18L97.1,118.6z"/>
</svg>
