<?xml version="1.0" encoding="utf-8"?>
<svg xmlns="http://www.w3.org/2000/svg" viewBox="0 0 100 100" id="svg-icon-eye">
	<path d="M0,50c33.3,42.2,66.7,42.2,100,0C66.7,7.8,33.3,7.8,0,50z M12,50C37.3,17.9,62.7,17.9,88,50C62.7,82.1,37.3,82.1,12,50z"/>
	<path d="M50,24.8c-7.8,0-14.8,3.6-19.5,9.2c3.2,0.7,5.6,3.5,5.6,6.9c0,3.9-3.2,7-7,7c-1.5,0-2.9-0.5-4.1-1.3 c-0.1,1.1-0.2,2.2-0.2,3.4c0,13.9,11.3,25.2,25.2,25.2S75.2,63.9,75.2,50C75.2,36.1,63.9,24.8,50,24.8z M50,61.3 c-6.3,0-11.3-5.1-11.3-11.3c0-6.3,5.1-11.3,11.3-11.3S61.3,43.7,61.3,50C61.3,56.3,56.3,61.3,50,61.3z"/>
</svg>
