<?xml version="1.0" encoding="utf-8"?>
<svg xmlns="http://www.w3.org/2000/svg" viewBox="0 0 100 100" id="svg-icon-heart">
<path d="M99.6,27.6c-1.1-7-4.9-13.5-11.1-18C82.4,5.1,75,3.6,68,4.7S54.5,9.6,50,15.8c-4.5-6.2-11-10-18-11.1S17.6,5.1,11.5,9.6 c-6.2,4.5-10,11-11.1,18c-1.1,7,0.4,14.4,4.9,20.6C16.4,63.6,50,95.6,50,95.6s33.6-32,44.8-47.5C99.2,42,100.8,34.6,99.6,27.6z M86.7,42.3C79,52.8,59.5,72.4,50,81.7c-9.5-9.3-29-28.9-36.7-39.4c-2.8-3.8-3.9-8.5-3.1-13.1c0.7-4.6,3.3-8.7,7.1-11.5 c3-2.2,6.6-3.3,10.3-3.3c0.9,0,1.9,0.1,2.8,0.2c5.2,0.8,10.3,4.3,15.6,10.5c1.6,1.9,2.3,3,2.3,3l1.7,2.6l1.7-2.6c0,0,0.8-1.2,2.3-3 c5.2-6.2,10.3-9.7,15.6-10.5c0.9-0.2,1.9-0.2,2.8-0.2c3.7,0,7.3,1.2,10.3,3.3c3.8,2.8,6.3,6.8,7.1,11.5 C90.5,33.8,89.4,38.5,86.7,42.3z"/>
</svg>
