<?xml version="1.0" encoding="utf-8"?>
<svg id="svg-icon-lamp" xmlns="http://www.w3.org/2000/svg" xmlns:xlink="http://www.w3.org/1999/xlink" viewBox="0 0 100 100">
	<polygon class="base" points="61.4,94.8 55.7,100 44.3,100 38.7,94.8 38.7,82.6 61.4,82.6"/>
	<path class="path" d="M50,14.7c-13.8,0-25,11.2-25,25c0,4.7,1.4,10.2,5.9,15.5c6.6,7.7,7.6,11.2,7.8,22.6c5,0,17.5,0,22.6,0 c0.2-11.4,1.2-14.9,7.8-22.6C73.6,50,75,44.5,75,39.7C75,25.9,63.8,14.7,50,14.7z M65.2,52c-6.5,7.5-8.3,12.2-8.8,20.9 c-2,0-4.2,0-6.4,0s-4.5,0-6.4,0c-0.5-8.7-2.3-13.3-8.8-20.9c-3.1-3.7-4.7-7.8-4.7-12.3c0-11,9-20,20-20s19.9,9,19.9,20 C70,44.2,68.4,48.4,65.2,52z"/>
	<line class="line" x1="50" y1="10.4" x2="50" y2="0"/>
	<line class="line" x1="79.3" y1="39.7" x2="89.7" y2="39.7"/>
	<line class="line" x1="10.3" y1="39.7" x2="20.7" y2="39.7"/>
	<line class="line" x1="35" y1="14.6" x2="29.7" y2="5.6"/>
	<line class="line" x1="65" y1="14.6" x2="70.3" y2="5.6"/>
	<line class="line" x1="75.3" y1="24.9" x2="84.2" y2="19.6"/>
	<line class="line" x1="15.8" y1="59.9" x2="24.8" y2="54.6"/>
	<line class="line" x1="24.4" y1="25.5" x2="15.3" y2="20.4"/>
	<line class="line" x1="84.7" y1="59.1" x2="75.6" y2="54"/>
	<path class="fill" d="M65.2,52c-6.5,7.5-8.3,12.2-8.8,20.9c-2,0-4.2,0-6.4,0s-4.5,0-6.4,0c-0.5-8.7-2.3-13.3-8.8-20.9c-3.1-3.7-4.7-7.8-4.7-12.3 c0-11,9-20,20-20s19.9,9,19.9,20C70,44.2,68.4,48.4,65.2,52z"/>
</svg>
