<?xml version="1.0" encoding="UTF-8"?>
<svg width="24" height="24" xmlns="http://www.w3.org/2000/svg">
<path d="M 11.5 24 h 1 c 5.4 0 8.2 0 9.8 -1.7 C 24 20.6 24 17.9 24 12.5 v -1 c 0 -5.4 0 -8.1 -1.7 -9.8 C 20.6 0 17.9 0 12.5 0 h -1 C 6.1 0 3.4 0 1.7 1.7 C 0 3.4 0 6.1 0 11.5 v 1 c 0 5.4 0 8.1 1.7 9.8 C 3.4 24 6.1 24 11.5 24 z" fill="#0077ff"></path>
<path d="M12.77 17.29c-5.47 0-8.59-3.75-8.72-9.99h2.74c.09 4.58 2.11 6.52 3.71 6.92V7.3h2.58v3.95c1.58-.17 3.24-1.97 3.8-3.95h2.58a7.62 7.62 0 01-3.51 4.98 7.9 7.9 0 014.11 5.01h-2.84a4.94 4.94 0 00-4.14-3.57v3.57h-.31z" fill="#ffffff"></path>
</svg>